<svg width="174" height="30" viewBox="0 0 174 30" fill="none" xmlns="http://www.w3.org/2000/svg">
<path d="M13.1596 0H0.5V6L12.1788 6C18.3153 6 20.3766 10.7857 20.6711 12.5714C21.3919 11.3483 21.8376 9.92986 21.8376 8.42001C21.8376 3.76977 17.9523 0 13.1596 0Z" fill="black"/>
<path d="M0.5 12H11.1706C14.0272 12 16.6068 13.1505 18.444 15C16.6068 16.8495 14.0272 18 11.1706 18H0.5V12Z" fill="black"/>
<path d="M0.5 30H13.1596C17.9523 30 21.8376 26.2302 21.8376 21.58C21.8376 20.0701 21.3919 18.6517 20.6711 17.4286C20.3766 19.2143 18.3153 24 12.1788 24H0.5V30Z" fill="black"/>
<path d="M73.7164 21.0148C74.4193 21.3859 75.2741 21.5714 76.2809 21.5714C77.0598 21.5714 77.7342 21.4577 78.304 21.2303C78.8803 21.0028 79.3647 20.6976 79.7573 20.3145C80.1499 19.9315 80.4601 19.5065 80.6881 19.0397L79.1684 18.501C78.8644 18.9738 78.4908 19.3599 78.0476 19.6591C77.6043 19.9524 77.0155 20.0991 76.2809 20.0991C75.6161 20.0991 75.043 19.9584 74.5618 19.6771C74.0869 19.3898 73.6943 19.0067 73.384 18.5279C73.0737 18.0431 72.8458 17.5014 72.7001 16.9029C72.5545 16.3044 72.4817 15.6939 72.4817 15.0714C72.4817 14.4968 72.545 13.9133 72.6716 13.3207C72.8046 12.7282 73.0167 12.1835 73.308 11.6868C73.6056 11.19 73.9982 10.789 74.4858 10.4837C74.9734 10.1785 75.5717 10.0258 76.2809 10.0258C76.7685 10.0258 77.1833 10.0917 77.5252 10.2234C77.8671 10.355 78.1616 10.5376 78.4085 10.771C78.6555 10.9985 78.8834 11.2588 79.0924 11.5521L80.5741 10.8339C80.3778 10.4568 80.0992 10.0977 79.7383 9.75651C79.3837 9.40937 78.9214 9.12507 78.3515 8.90361C77.788 8.68216 77.0978 8.57143 76.2809 8.57143C75.2931 8.57143 74.4478 8.75996 73.7449 9.13704C73.0484 9.50812 72.4817 10.0079 72.0447 10.6363C71.6078 11.2648 71.2849 11.9651 71.0759 12.7372C70.8733 13.5033 70.772 14.2814 70.772 15.0714C70.772 15.8675 70.8701 16.6515 71.0664 17.4236C71.2691 18.1957 71.5857 18.896 72.0163 19.5245C72.4468 20.1469 73.0136 20.6437 73.7164 21.0148Z" fill="black"/>
<path fill-rule="evenodd" clip-rule="evenodd" d="M35.9834 8.7869V21.356H40.9984C41.809 21.356 42.4897 21.2512 43.0406 21.0417C43.5978 20.8263 44.041 20.542 44.3703 20.1888C44.7059 19.8357 44.9465 19.4467 45.0922 19.0217C45.2378 18.5968 45.3106 18.1718 45.3106 17.7468C45.3106 17.268 45.2156 16.8281 45.0257 16.4271C44.8357 16.0261 44.5571 15.6819 44.1898 15.3946C43.8289 15.1014 43.392 14.8799 42.8791 14.7303C43.4996 14.4789 43.9809 14.1228 44.3228 13.6619C44.6647 13.201 44.8357 12.6833 44.8357 12.1087C44.8357 11.5521 44.7091 11.0194 44.4558 10.5107C44.2025 10.0019 43.7751 9.58892 43.1735 9.2717C42.572 8.9485 41.7456 8.7869 40.6945 8.7869H35.9834ZM41.1884 19.9195H37.6361V15.5383H40.5805C41.41 15.5383 42.0464 15.649 42.4897 15.8705C42.9392 16.0859 43.2495 16.3702 43.4205 16.7234C43.5914 17.0765 43.6769 17.4536 43.6769 17.8546C43.6769 18.1898 43.6041 18.516 43.4585 18.8332C43.3192 19.1504 43.069 19.4107 42.7081 19.6142C42.3472 19.8177 41.8406 19.9195 41.1884 19.9195ZM40.3716 14.1198H37.6361V10.2054H40.7895C41.4544 10.2054 41.9609 10.3012 42.3092 10.4927C42.6575 10.6842 42.8918 10.9296 43.0121 11.2289C43.1387 11.5222 43.202 11.8214 43.202 12.1267C43.202 12.7252 42.9646 13.207 42.4897 13.5721C42.0211 13.9372 41.3151 14.1198 40.3716 14.1198Z" fill="black"/>
<path d="M48.357 8.7869V21.356H56.5444V19.8477H50.0097V8.7869H48.357Z" fill="black"/>
<path fill-rule="evenodd" clip-rule="evenodd" d="M58.4094 21.356L63.1205 8.7869H64.6592L69.3703 21.356H67.6796L66.5398 18.2855H61.2588L60.138 21.356H58.4094ZM61.7527 16.9029H66.0269L64.3172 12.2524C64.2729 12.1327 64.2222 11.995 64.1653 11.8394C64.1146 11.6778 64.0639 11.5222 64.0133 11.3725C63.9626 11.2169 63.9246 11.0852 63.8993 10.9775C63.8676 11.0852 63.8265 11.2169 63.7758 11.3725C63.7315 11.5222 63.6809 11.6778 63.6239 11.8394C63.5732 11.995 63.5257 12.1327 63.4814 12.2524L61.7527 16.9029Z" fill="black"/>
<path d="M83.4743 8.7869H85.127V14.9457L90.313 8.7869H92.1747L88.5084 13.1322L93.2574 21.356H91.3388L87.3876 14.443L85.127 17.0645V21.356H83.4743V8.7869Z" fill="black"/>
<path d="M103.522 13.5899L107.133 21.5714L110.705 13.626C110.8 13.4093 110.902 13.1685 111.009 12.9037C111.123 12.6388 111.218 12.4041 111.294 12.1994C111.288 12.362 111.279 12.5817 111.266 12.8585C111.26 13.1294 111.256 13.3732 111.256 13.5899V21.3547H112.91V8.71429H111.333L107.475 17.2195C107.411 17.364 107.351 17.5084 107.294 17.6529C107.237 17.7913 107.183 17.9298 107.133 18.0682L106.962 17.6348C106.905 17.4904 106.848 17.3519 106.791 17.2195L102.914 8.71429H101.355V21.3547H103.009V13.5899C103.009 13.3732 103.002 13.1324 102.99 12.8676C102.983 12.5967 102.971 12.38 102.952 12.2175C103.028 12.4222 103.116 12.6509 103.218 12.9037C103.325 13.1505 103.427 13.3792 103.522 13.5899Z" fill="black"/>
<path fill-rule="evenodd" clip-rule="evenodd" d="M120.078 8.71429L115.365 21.3547H117.094L118.215 18.2669H123.499L124.639 21.3547H126.33L121.617 8.71429H120.078ZM122.985 16.8764H118.71L120.439 12.1994C120.483 12.0791 120.531 11.9406 120.581 11.7841C120.638 11.6216 120.689 11.4651 120.733 11.3146C120.784 11.1581 120.825 11.0257 120.857 10.9173C120.882 11.0257 120.92 11.1581 120.971 11.3146C121.022 11.4651 121.072 11.6216 121.123 11.7841C121.18 11.9406 121.231 12.0791 121.275 12.1994L122.985 16.8764Z" fill="black"/>
<path fill-rule="evenodd" clip-rule="evenodd" d="M128.785 21.3547V8.71429H134.03C135.095 8.71429 135.931 8.88884 136.539 9.23796C137.153 9.58708 137.587 10.0385 137.841 10.5923C138.1 11.14 138.23 11.7119 138.23 12.3078C138.23 12.8074 138.126 13.301 137.917 13.7885C137.714 14.2701 137.385 14.6944 136.928 15.0616C136.472 15.4288 135.874 15.6846 135.133 15.8291L137.983 21.3547H136.121L133.384 15.9374H130.439V21.3547H128.785ZM130.439 14.4747H134.068C134.689 14.4747 135.18 14.3694 135.541 14.1587C135.909 13.948 136.168 13.6802 136.32 13.3551C136.479 13.0301 136.558 12.693 136.558 12.3439C136.558 12.0309 136.485 11.7089 136.339 11.3778C136.2 11.0407 135.95 10.7578 135.589 10.5291C135.228 10.2943 134.721 10.177 134.068 10.177H130.439V14.4747Z" fill="black"/>
<path d="M141.424 8.71429V21.3547H143.077V17.0389L145.339 14.4025L149.291 21.3547H151.211L146.46 13.0843L150.128 8.71429H148.265L143.077 14.9081V8.71429H141.424Z" fill="black"/>
<path d="M153.932 21.3547V8.71429H161.838V10.195H155.586V14.0774H159.71V15.5582H155.586V19.8559H162.256V21.3547H153.932Z" fill="black"/>
<path d="M168.141 10.2131V21.3547H169.794V10.2131H173.5V8.71429H164.435V10.2131H168.141Z" fill="black"/>
</svg>
